<svg id="be20b358-9f02-4802-92e2-50fc577fbe92" data-name="Layer 1" xmlns="http://www.w3.org/2000/svg" xmlns:xlink="http://www.w3.org/1999/xlink" viewBox="0 0 305.6 104"><defs><style>.b57a2b2c-3a9e-4070-96d4-d8df7b5c8b36{fill:#125ea9;}.f1495431-2429-4818-8272-8d9e3ef0aa49{fill:#5b5c5e;}.a35d0c3c-07ab-414c-8967-06fea4464a9d{fill:url(#a07294e9-b860-4b2f-a660-03bdb6344935);}.a1461897-0b90-49de-8c5d-9a67230cbee9{fill:url(#a838b674-6cdb-4c78-ad3a-8772fb2363d3);}.f3631d3e-8c60-4b63-a516-a02d97ff24b8{fill:#e9292b;}.acb3633c-9bb3-44f9-ab2b-055fbb25b2f4{fill:url(#a18798e4-2462-49b4-b480-3e9d3531a2e3);}.a876b747-498f-4461-bc49-965a0f046cda{fill:url(#fdbb4fe6-cb3d-4543-88c3-2befc418124a);}.ab106e2d-74ca-4635-b5c1-9a7b3de14118{fill:url(#bf3d9f4b-d911-4517-baa2-7cb8c313ed58);}.bb6d681e-ecfe-4470-8f23-2c8c29a66f77{fill:url(#bc8fb89c-6f45-41a1-81ac-6b7600c18886);}.a83c6ea2-60c4-4bac-b930-4e94cd4200e3{fill:url(#ab0b4607-6f41-421a-9496-138bfed64609);}.a3e6c82d-c448-4191-a629-1ba277ce6c6d{fill:url(#bd218f85-ba2c-40d1-a2de-889622e5f963);}.a2381b14-7867-4e29-b5ad-96155ad8ec5c{fill:url(#adc51a50-c20a-45d9-aae9-4c239f7e5332);}.edfc08fe-c11d-4f2e-ad40-36c349109159{fill:url(#ba3da5df-f7ff-4aeb-bf32-b2c2e480f2c0);}.ac2a9cd3-335d-4a6b-97ef-d70894065cd0{fill:url(#a02e53c2-2265-413c-b742-b77bec9f6039);}.ab3b518d-8944-473e-88f8-fe97760aa127{fill:url(#b4ae8055-669e-4c05-8aaf-a6108997b478);}.acccb5ec-f217-4245-8e4b-bb4ec35252f5{fill:url(#aa1b83f9-2b8d-4493-88db-7eabee1bca57);}.b429095c-585c-4fb2-b6ae-57a19fc60da2{fill:url(#a13c2fc2-dfb5-4eb1-bafb-e9ab35830082);}.b71fcecc-8826-45cc-9056-12cbc60ad328{fill:#f8cc7f;}.bc28f5cd-5f0b-49a5-8a25-7a503b9c095e{fill:#f37458;}</style><radialGradient id="a07294e9-b860-4b2f-a660-03bdb6344935" cx="61.63" cy="109.27" r="0.87" gradientTransform="matrix(54.72, 0, 0, -54.72, -3324.77, 6051.69)" gradientUnits="userSpaceOnUse"><stop offset="0" stop-color="#2190cf"/><stop offset="0.58" stop-color="#1971b7"/><stop offset="1" stop-color="#1660aa"/></radialGradient><radialGradient id="a838b674-6cdb-4c78-ad3a-8772fb2363d3" cx="61.63" cy="109.27" r="0.87" gradientTransform="matrix(54.73, 0, 0, -54.73, -3325.55, 6052.99)" xlink:href="#a07294e9-b860-4b2f-a660-03bdb6344935"/><linearGradient id="a18798e4-2462-49b4-b480-3e9d3531a2e3" x1="111.56" y1="-54.91" x2="110.34" y2="61.14" gradientUnits="userSpaceOnUse"><stop offset="0.26" stop-color="#ffcb2a"/><stop offset="0.48" stop-color="#fee779"/><stop offset="0.52" stop-color="#e8bf5f"/><stop offset="0.56" stop-color="#d49c48"/><stop offset="0.6" stop-color="#c68237"/><stop offset="0.63" stop-color="#bd722d"/><stop offset="0.66" stop-color="#ba6d29"/><stop offset="0.7" stop-color="#be732c"/><stop offset="0.76" stop-color="#c98436"/><stop offset="0.82" stop-color="#daa146"/><stop offset="0.89" stop-color="#f3c85b"/><stop offset="0.92" stop-color="#ffdb66"/><stop offset="0.96" stop-color="#fde77c"/><stop offset="1" stop-color="#fbf394"/></linearGradient><linearGradient id="fdbb4fe6-cb3d-4543-88c3-2befc418124a" x1="126.61" y1="-54.76" x2="125.39" y2="61.3" xlink:href="#a18798e4-2462-49b4-b480-3e9d3531a2e3"/><linearGradient id="bf3d9f4b-d911-4517-baa2-7cb8c313ed58" x1="135.63" y1="-54.66" x2="134.41" y2="61.4" xlink:href="#a18798e4-2462-49b4-b480-3e9d3531a2e3"/><linearGradient id="bc8fb89c-6f45-41a1-81ac-6b7600c18886" x1="150.73" y1="-54.5" x2="149.5" y2="61.55" xlink:href="#a18798e4-2462-49b4-b480-3e9d3531a2e3"/><linearGradient id="ab0b4607-6f41-421a-9496-138bfed64609" x1="167.59" y1="-54.32" x2="166.37" y2="61.73" xlink:href="#a18798e4-2462-49b4-b480-3e9d3531a2e3"/><linearGradient id="bd218f85-ba2c-40d1-a2de-889622e5f963" x1="191.34" y1="-54.07" x2="190.12" y2="61.98" xlink:href="#a18798e4-2462-49b4-b480-3e9d3531a2e3"/><linearGradient id="adc51a50-c20a-45d9-aae9-4c239f7e5332" x1="208.4" y1="-53.89" x2="207.18" y2="62.16" xlink:href="#a18798e4-2462-49b4-b480-3e9d3531a2e3"/><linearGradient id="ba3da5df-f7ff-4aeb-bf32-b2c2e480f2c0" x1="221.36" y1="-53.76" x2="220.13" y2="62.3" xlink:href="#a18798e4-2462-49b4-b480-3e9d3531a2e3"/><linearGradient id="a02e53c2-2265-413c-b742-b77bec9f6039" x1="242.23" y1="-53.54" x2="241" y2="62.52" xlink:href="#a18798e4-2462-49b4-b480-3e9d3531a2e3"/><linearGradient id="b4ae8055-669e-4c05-8aaf-a6108997b478" x1="253.49" y1="-53.42" x2="252.26" y2="62.64" xlink:href="#a18798e4-2462-49b4-b480-3e9d3531a2e3"/><linearGradient id="aa1b83f9-2b8d-4493-88db-7eabee1bca57" x1="266.94" y1="-53.28" x2="265.72" y2="62.78" xlink:href="#a18798e4-2462-49b4-b480-3e9d3531a2e3"/><linearGradient id="a13c2fc2-dfb5-4eb1-bafb-e9ab35830082" x1="286.03" y1="-53.08" x2="284.8" y2="62.98" xlink:href="#a18798e4-2462-49b4-b480-3e9d3531a2e3"/></defs><path class="b57a2b2c-3a9e-4070-96d4-d8df7b5c8b36" d="M177.8,61.5a4.8,4.8,0,0,0-.9-1.1l-.5-.3h-1l-.4.3a4,4,0,0,0-1,1.2c-1.3,1.8-2.6,3.8-3.8,5.7l-6.8,10a3.2,3.2,0,0,0-.3.9,2.9,2.9,0,0,0,.2.9c.2.2.4.5.6.6a1.5,1.5,0,0,0,.9.2h8.7l.3-.3,1.6-2.6.5-.7h-6.7l6.7-10.1,1.1,1.7,7.8,11.7a.7.7,0,0,0,.5.4h4.8l-.3-.4Z" transform="translate(-1.8 -15.1)"/><path class="b57a2b2c-3a9e-4070-96d4-d8df7b5c8b36" d="M129.7,61.3a1.1,1.1,0,0,0-.8.2l-.7.4a1.6,1.6,0,0,0-.4.7,1.9,1.9,0,0,0-.2.8V77.9a3.1,3.1,0,0,0,.2.8l.4.6a1.8,1.8,0,0,0,.7.5h1.6l.6-.5.5-.6a2.5,2.5,0,0,0,.1-.8V63.4a1.9,1.9,0,0,0-.1-.8,1.8,1.8,0,0,0-.5-.7l-.6-.4Z" transform="translate(-1.8 -15.1)"/><path class="b57a2b2c-3a9e-4070-96d4-d8df7b5c8b36" d="M157.4,61.3a1.3,1.3,0,0,0-.8.2l-.6.4a1.8,1.8,0,0,0-.5.7,1.9,1.9,0,0,0-.1.8V74.6L138.9,61.9h0l-.7-.4-.8-.2a1.3,1.3,0,0,0-.8.2l-.6.4a1.8,1.8,0,0,0-.5.7,1.9,1.9,0,0,0-.1.8V77.9a2.5,2.5,0,0,0,.1.8l.5.6.6.5h1.6a1.8,1.8,0,0,0,.7-.5l.4-.6a3.1,3.1,0,0,0,.2-.8V66.7l16.6,12.7h0a2.1,2.1,0,0,0,1.3.5h.8a1.8,1.8,0,0,0,.7-.5,1.6,1.6,0,0,0,.4-.7,1.9,1.9,0,0,0,.2-.8V63.4a1.9,1.9,0,0,0-.2-.8,1.6,1.6,0,0,0-.4-.7l-.7-.4Z" transform="translate(-1.8 -15.1)"/><path class="b57a2b2c-3a9e-4070-96d4-d8df7b5c8b36" d="M251.3,65.4h19.5a2,2,0,0,0,1.5-.6,2,2,0,0,0,.6-1.4,2.1,2.1,0,0,0-2.1-2.1H251.3a1.1,1.1,0,0,0-.8.2l-.7.4a2,2,0,0,0-.6,1.5,2,2,0,0,0,.6,1.4l.7.5Z" transform="translate(-1.8 -15.1)"/><path class="b57a2b2c-3a9e-4070-96d4-d8df7b5c8b36" d="M270.8,75.8H254.6a1.4,1.4,0,0,1-.9-.3c-.2-.1-.2-.2-.3-.3a.8.8,0,0,1-.1-.4V72.7h16.6l.8-.2.7-.4a2.5,2.5,0,0,0,.4-.7,1.7,1.7,0,0,0,0-1.6,2.1,2.1,0,0,0-.4-.6l-.7-.5H251.9a3.4,3.4,0,0,0-2,.3,1.7,1.7,0,0,0-.7,1.6v3.8a5.9,5.9,0,0,0,.5,2.3,5.7,5.7,0,0,0,1.2,1.8,5,5,0,0,0,1.7,1.1,3.7,3.7,0,0,0,1.8.4h17.2a1.8,1.8,0,0,0,.7-.5l.4-.6a3.1,3.1,0,0,0,.2-.8,1.9,1.9,0,0,0-.2-.8,1.6,1.6,0,0,0-.4-.7l-.7-.4Z" transform="translate(-1.8 -15.1)"/><path class="b57a2b2c-3a9e-4070-96d4-d8df7b5c8b36" d="M226.3,67.2a6.4,6.4,0,0,1,1.5-1.3,4.9,4.9,0,0,1,2.4-.5h13.3a2,2,0,0,0,1.5-.6,2,2,0,0,0,.6-1.4,2.1,2.1,0,0,0-2.1-2.1H229.3a6.3,6.3,0,0,0-3.3.9,8.6,8.6,0,0,0-2.5,2.2,11.4,11.4,0,0,0-1.5,2.9,11.1,11.1,0,0,0,0,6.6,11.7,11.7,0,0,0,1.4,3,12.6,12.6,0,0,0,2.4,2.2,6.5,6.5,0,0,0,3.1.8h15.4a1.8,1.8,0,0,0,.7-.5l.4-.6a3.1,3.1,0,0,0,.2-.8,1.9,1.9,0,0,0-.2-.8,1.6,1.6,0,0,0-.4-.7l-.7-.4-.8-.2H230.2a4,4,0,0,1-2.4-.5,4.7,4.7,0,0,1-1.5-1.3,5.1,5.1,0,0,1-.7-1.7,7.3,7.3,0,0,1,0-3.4A5.1,5.1,0,0,1,226.3,67.2Z" transform="translate(-1.8 -15.1)"/><path class="b57a2b2c-3a9e-4070-96d4-d8df7b5c8b36" d="M215.8,61.3l-.8.2-.7.4a1.6,1.6,0,0,0-.4.7,1.1,1.1,0,0,0-.2.8V74.6L197.2,61.9h0l-.7-.4-.7-.2-.8.2-.7.4a1.6,1.6,0,0,0-.4.7,1.1,1.1,0,0,0-.2.8V77.9a2.5,2.5,0,0,0,.1.8l.5.6a1.8,1.8,0,0,0,.7.5h1.5a1.8,1.8,0,0,0,.7-.5,2.1,2.1,0,0,0,.4-.6,3.1,3.1,0,0,0,.2-.8V66.7l16.6,12.7h0a2.4,2.4,0,0,0,1.3.5h.8a1.8,1.8,0,0,0,.7-.5,1.6,1.6,0,0,0,.4-.7,1.9,1.9,0,0,0,.2-.8V63.4a1.9,1.9,0,0,0-.2-.8,1.6,1.6,0,0,0-.4-.7l-.7-.4Z" transform="translate(-1.8 -15.1)"/><path class="b57a2b2c-3a9e-4070-96d4-d8df7b5c8b36" d="M121.9,65.4h.8l.7-.5a1.6,1.6,0,0,0,.4-.7,1.9,1.9,0,0,0,.2-.7,1.9,1.9,0,0,0-.2-.8,1.6,1.6,0,0,0-.4-.7l-.7-.4a1.1,1.1,0,0,0-.8-.2H102.3l-.8.2-.6.4a1.8,1.8,0,0,0-.5.7,1.9,1.9,0,0,0-.1.8V77.9a2.2,2.2,0,0,0,.1.8,1.5,1.5,0,0,0,.5.6,1.8,1.8,0,0,0,.7.5h1.5a1.8,1.8,0,0,0,.7-.5c.2-.1.3-.4.4-.6a2.4,2.4,0,0,0,.2-.8V72.7h17.5l.8-.2.7-.4a2.5,2.5,0,0,0,.4-.7,1.7,1.7,0,0,0,0-1.6c-.1-.2-.2-.5-.4-.6a1.8,1.8,0,0,0-.7-.5H104.4V65.4Z" transform="translate(-1.8 -15.1)"/><path class="f1495431-2429-4818-8272-8d9e3ef0aa49" d="M113.2,85.8h-2l-.5.2-.4.4-.3.4c0,.2-.1.4-.1.6a6.6,6.6,0,0,1-.1,1.1H109V89h.9v6.7h.9V89h2.1v-.6h-2.1v-.6a1.3,1.3,0,0,0,.1-.6.5.5,0,0,1,.2-.4.2.2,0,0,1,.2-.2l.3-.2a2.5,2.5,0,0,1,1.7.2h.2v-.2A.9.9,0,0,1,113.2,85.8Z" transform="translate(-1.8 -15.1)"/><path class="f1495431-2429-4818-8272-8d9e3ef0aa49" d="M120.1,85.8h-.2v1h1v-1h-.9Z" transform="translate(-1.8 -15.1)"/><path class="f1495431-2429-4818-8272-8d9e3ef0aa49" d="M120.1,88.3h-.2c0,.6,0,1.7-.1,3.5s-.1,2.9-.2,3.6v.2h.9c0-.8,0-1.9.1-3.5s.1-2.8.2-3.7h-.7Z" transform="translate(-1.8 -15.1)"/><path class="f1495431-2429-4818-8272-8d9e3ef0aa49" d="M134.8,88.8a1.4,1.4,0,0,0-1-.5,4.1,4.1,0,0,0-1.9-.1h-.7l-.7.4a1.7,1.7,0,0,0-.6.6v-1h-.8v2.8l-.3,4.5h.9a19.3,19.3,0,0,1,.1-2.3c0-.9.1-1.6.1-1.9a2.3,2.3,0,0,1,.3-1.1,2.2,2.2,0,0,1,.5-.8l.8-.5a2.5,2.5,0,0,1,1.2-.1h.9a1.1,1.1,0,0,1,.7.3,1,1,0,0,1,.4.5,2.2,2.2,0,0,1,.1.8v3.3c0,.5-.1,1.1-.1,1.6v.2h.8V90.5a2.9,2.9,0,0,0-.2-.9A1.4,1.4,0,0,0,134.8,88.8Z" transform="translate(-1.8 -15.1)"/><path class="f1495431-2429-4818-8272-8d9e3ef0aa49" d="M148.6,88.6a2.5,2.5,0,0,0-.9-.4,8.9,8.9,0,0,0-2.3,0l-1.3.3H144v.8h.3l.7-.3h.8a4.9,4.9,0,0,1,1.7,0l.6.2a.8.8,0,0,1,.4.4c0,.1.1.2.1.4a.8.8,0,0,1-.2.5,1.3,1.3,0,0,1-.6.5l-.8.3-1.2.3-1,.3-.8.4c-.2.2-.4.3-.5.5a1.6,1.6,0,0,0-.3.6,1.3,1.3,0,0,0-.1.6,2.2,2.2,0,0,0,.1.8l.6.7.9.4h2.9a1.1,1.1,0,0,1,.1-.5v-.2h-.2l-.7.2h-1.1a1.4,1.4,0,0,1-.9-.1l-.7-.4a1.9,1.9,0,0,1-.2-.7.7.7,0,0,1,.1-.5l.3-.4a1,1,0,0,1,.5-.4l.9-.4.9-.2.8-.2.4-.2h.3l.3-.2h.1c0,.3-.1.7-.1,1.1v1.4a14.9,14.9,0,0,1-.2,1.7v.2h1V93.6a6.6,6.6,0,0,1,.1-1.5V90.9c0-.3.1-.6.1-.9a1.9,1.9,0,0,0-.2-.7A1.2,1.2,0,0,0,148.6,88.6Z" transform="translate(-1.8 -15.1)"/><path class="f1495431-2429-4818-8272-8d9e3ef0aa49" d="M163.3,88.8a1.4,1.4,0,0,0-1-.5,4.1,4.1,0,0,0-1.9-.1h-.8l-.6.4-.4.4-.3.2v-1h-.9v2.8l-.3,4.5h.9a19.3,19.3,0,0,1,.1-2.3,8.7,8.7,0,0,1,.1-1.9,2.3,2.3,0,0,1,.3-1.1,2.2,2.2,0,0,1,.5-.8l.8-.5a2.5,2.5,0,0,1,1.2-.1h.9a1.1,1.1,0,0,1,.7.3,1,1,0,0,1,.4.5,2.2,2.2,0,0,1,.1.8v3.3c-.1.5-.1,1.1-.2,1.6v.2h.9V94.4l.2-3.2v-.7a2.8,2.8,0,0,0-.1-.9A2.4,2.4,0,0,0,163.3,88.8Z" transform="translate(-1.8 -15.1)"/><path class="f1495431-2429-4818-8272-8d9e3ef0aa49" d="M177.5,88.5h-.1l-1.9-.3a4.3,4.3,0,0,0-2.2.6,3.3,3.3,0,0,0-1.1,1.5,5.1,5.1,0,0,0-.4,2,6.8,6.8,0,0,0,.2,1.5,3.5,3.5,0,0,0,.7,1.2,2.5,2.5,0,0,0,1.2.7,3.5,3.5,0,0,0,1.4.3l1.7-.2h.1v-.2a4.3,4.3,0,0,0,.1-.5v-.2H177l-1,.3a3.7,3.7,0,0,1-1.8-.1,2.4,2.4,0,0,1-.9-.6,1.6,1.6,0,0,1-.5-.9,4,4,0,0,1,0-2.5,2.2,2.2,0,0,1,.5-1.1,1.8,1.8,0,0,1,.9-.8l1.2-.3h.7l1.2.3h.2V89C177.5,88.9,177.4,88.7,177.5,88.5Z" transform="translate(-1.8 -15.1)"/><path class="f1495431-2429-4818-8272-8d9e3ef0aa49" d="M185.7,85.8h-.2v1h1v-1h-.8Z" transform="translate(-1.8 -15.1)"/><path class="f1495431-2429-4818-8272-8d9e3ef0aa49" d="M185.7,88.3h-.2c0,.6,0,1.7-.1,3.5s-.1,3-.2,3.6v.2h.9c0-.8,0-2,.1-3.5s.1-2.7.2-3.7h-.7Z" transform="translate(-1.8 -15.1)"/><path class="f1495431-2429-4818-8272-8d9e3ef0aa49" d="M199.5,88.6l-1-.4a8.8,8.8,0,0,0-2.3,0l-1.2.3h-.1a1.1,1.1,0,0,0-.1.5v.3h.3l.8-.3h.7a5.4,5.4,0,0,1,1.8,0l.6.2.3.4c.1.1.1.2.1.4a.8.8,0,0,1-.2.5c-.1.3-.3.4-.6.5l-.8.3-1.2.3-1,.3-.8.4-.5.5-.3.5a2.6,2.6,0,0,0,.1,1.5l.5.7a1.6,1.6,0,0,0,.9.3h2.9a4.3,4.3,0,0,0,.1-.5v-.3h-.3l-.7.2h-2a.9.9,0,0,1-.6-.4,1.1,1.1,0,0,1-.3-.7,4.3,4.3,0,0,1,.1-.5l.3-.4.6-.4.9-.4.9-.2.8-.2.3-.2h.4l.3-.2h0v1.2c0,.5-.1.9-.1,1.4a13.6,13.6,0,0,1-.1,1.8h.9V93.6c0-.6.1-1.1.1-1.5a4.9,4.9,0,0,1,.1-1.2V90c0-.2-.1-.5-.1-.7A1.8,1.8,0,0,0,199.5,88.6Z" transform="translate(-1.8 -15.1)"/><path class="f1495431-2429-4818-8272-8d9e3ef0aa49" d="M208.6,85.8h-.1c0,2.5-.2,5.7-.4,9.6v.2h.9l.2-6.3.2-3.6h-.8Z" transform="translate(-1.8 -15.1)"/><path class="f1495431-2429-4818-8272-8d9e3ef0aa49" d="M233.4,85.8h-.2c0,.5.1.9.1,1.2a3.7,3.7,0,0,1-.1,1.1,8.1,8.1,0,0,0-3.1.1,3.8,3.8,0,0,0-1.5.9,3.3,3.3,0,0,0-1,1.4,3.9,3.9,0,0,0-.4,1.8,5.1,5.1,0,0,0,.2,1.3,2.4,2.4,0,0,0,.6,1.1,2.8,2.8,0,0,0,1.1.8,3.3,3.3,0,0,0,2.2.1l.8-.3.6-.4.3-.5v1.2h.9v-7c0-1,.1-1.9.1-2.8v-.2h-.7Zm-.3,5.5a7.6,7.6,0,0,1-.1,1.5l-.3.8a1.6,1.6,0,0,1-.4.7l-.5.5-.6.3a2.2,2.2,0,0,1-.8,0,1.8,1.8,0,0,1-1.2-.3,2,2,0,0,1-.9-.9,4,4,0,0,1-.3-1.5,3.2,3.2,0,0,1,.3-1.4,5.7,5.7,0,0,1,.8-1.3l1.2-.7,1.5-.2h1.4Z" transform="translate(-1.8 -15.1)"/><path class="f1495431-2429-4818-8272-8d9e3ef0aa49" d="M247.2,88.6l-.9-.4a8.8,8.8,0,0,0-2.3,0l-1.3.3h-.1a.7.7,0,0,1-.1.5v.3h.2l.8-.3h.7a5.4,5.4,0,0,1,1.8,0l.6.2a.8.8,0,0,1,.4.4v.4c0,.2,0,.4-.2.5l-.5.5-.9.3-1.1.3-1.1.3-.7.4c-.2.2-.4.3-.5.5a.9.9,0,0,0-.3.5,1.1,1.1,0,0,0-.1.8,1.7,1.7,0,0,0,.1.7c.2.2.3.5.6.7a1.4,1.4,0,0,0,.9.3h2.9a1.1,1.1,0,0,1,.1-.5v-.3H246l-.7.2h-2l-.7-.4a1.9,1.9,0,0,1-.2-.7.7.7,0,0,1,.1-.5c.1-.2.1-.3.3-.4a1,1,0,0,1,.5-.4l1-.4.8-.2.8-.2.4-.2h.3l.3-.2h.1a4.5,4.5,0,0,1-.1,1.1v1.4a12.8,12.8,0,0,1-.2,1.7v.2h1V93.6a6.6,6.6,0,0,1,.1-1.5V90.9a2.8,2.8,0,0,0,.1-.9,1.9,1.9,0,0,0-.2-.7A1.2,1.2,0,0,0,247.2,88.6Z" transform="translate(-1.8 -15.1)"/><path class="f1495431-2429-4818-8272-8d9e3ef0aa49" d="M257.2,87v-.2h-.8a4.1,4.1,0,0,1-.1,1.2h-.8a.6.6,0,0,1-.1.4h.9l-.2,4.6a4.3,4.3,0,0,1-.1.5v.2c0,.2.1.4.1.6l.3.6.6.3h1.9c.1-.1.1-.2.1-.4v-.2h-.3l-.7.2a1.1,1.1,0,0,1-.8-.1l-.3-.3a2.4,2.4,0,0,1-.2-.8l.3-5h2.1v-.6h-2.1A8.3,8.3,0,0,1,257.2,87Z" transform="translate(-1.8 -15.1)"/><path class="f1495431-2429-4818-8272-8d9e3ef0aa49" d="M272,89.3a1.3,1.3,0,0,0-.6-.7,2.5,2.5,0,0,0-.9-.4,8.9,8.9,0,0,0-2.3,0l-1.3.3h-.1v.8h.3l.7-.3h.8a4.8,4.8,0,0,1,1.7,0l.7.2.3.4c0,.1.1.2.1.4a.8.8,0,0,1-.2.5,1.3,1.3,0,0,1-.6.5l-.8.3-1.2.3-1,.3-.8.4-.5.5-.3.5a1.7,1.7,0,0,0-.1.7,1.2,1.2,0,0,0,.2.8l.5.7.9.3h2.9a4.3,4.3,0,0,0,.1-.5v-.3h-.3l-.7.2h-2a.9.9,0,0,1-.6-.4,1.1,1.1,0,0,1-.3-.7.7.7,0,0,1,.1-.5l.3-.4.6-.4.9-.4.9-.2.8-.2.3-.2h.4l.2-.2h.1v1.2c0,.5-.1.9-.1,1.4s-.1,1-.1,1.7v.2h.9V93.6c0-.6.1-1.1.1-1.5a4.9,4.9,0,0,1,.1-1.2V90C272.1,89.8,272,89.5,272,89.3Z" transform="translate(-1.8 -15.1)"/><path class="a35d0c3c-07ab-414c-8967-06fea4464a9d" d="M83.5,57.8l4.3-4.7a9.1,9.1,0,0,1,2.3-1.7A46.7,46.7,0,0,0,75.9,34.7C81,41.2,83.4,49.2,83.5,57.8Z" transform="translate(-1.8 -15.1)"/><path class="a1461897-0b90-49de-8c5d-9a67230cbee9" d="M93.9,61.4,83.2,72.2c-4.7,4.4-8.4,1.5-11.8-.6L50.2,58.2c-6.7-4.6.9-12.1,6.3-8.7l14.8,8.8c-.4-11.7-3.9-26.1-14.2-31.7a47.5,47.5,0,0,0-34.4,6.9A46.7,46.7,0,0,0,37,117.7h0c-8.1-6.2-12.6-17.5-12.7-30.4l-4.4,4.6c-2.7,2.9-6.9,3.6-8.7,1.6s-1.6-5.5,1-8.2L25.5,72.2c3.2-4.3,7.4-.9,10.9,1.2L57.6,86.9c6.6,4.5-1,12-6.3,8.6L36.5,86.7c.3,12.2,4.1,27.4,15.5,32.3a46.5,46.5,0,0,0,19.3-5.7A46.6,46.6,0,0,0,93.9,61.4Z" transform="translate(-1.8 -15.1)"/><path class="f3631d3e-8c60-4b63-a516-a02d97ff24b8" d="M83.2,72.2c-4.7,4.4-8.4,1.5-11.8-.6L50.2,58.2c-2.4-1.7-2.9-3.6-2.5-5.4C44.3,58,63.3,76,68.7,79.7c3.8,2.5,7.6,4.8,10.2,5.1s4.5-2.3,7.1-5.5S96.3,62.5,97.6,56.2C95.4,59.9,83.2,72.2,83.2,72.2Z" transform="translate(-1.8 -15.1)"/><path class="acb3633c-9bb3-44f9-ab2b-055fbb25b2f4" d="M119.9,35.9l.7-.2c.2-.1.2-.2.2-.3a.6.6,0,0,0-.1-.4.8.8,0,0,0-.2-.5l-.3-.4-.3-.2a6.1,6.1,0,0,0-1.4,1.4l-1.4,2.3q-.7,1.4-1.5,3a30.9,30.9,0,0,0-1.4,3.2h2.7c0,.4-.1.7-.4.8h-2.7c-.6,1.5-1.1,2.8-1.5,4.1l-1.1,2.9c0,.1-.1.2-.4.2h-.7l-1.1-.2.9-2.8a38.7,38.7,0,0,1,1.6-4.2h-3.1l-1.2,2.4a16.5,16.5,0,0,1-1,1.9l-1,1.5a1.9,1.9,0,0,1-.7.8l-1.1.6a2.2,2.2,0,0,1-1.3.2,2.1,2.1,0,0,1-1.6-.6,2.4,2.4,0,0,1-1-1,3.8,3.8,0,0,1-.4-1.3,2.5,2.5,0,0,1,.2-1,.7.7,0,0,1,.6-.4h.6l.6.3.4.5c-.4,0-.7.1-.8.4a1.1,1.1,0,0,0-.1.8,1.5,1.5,0,0,0,.6.9,1.6,1.6,0,0,0,1.2.4l.6-.5,1-1.4,1.1-2.1c.4-.7.8-1.6,1.2-2.4h-2.5c0-.4,0-.7.1-.8h2.8l1.6-3.6,1.4-3.1c.4-1,.7-1.8,1-2.4a3.6,3.6,0,0,1,.5-1.2h1.4c.3,0,.5,0,.4.1a11.4,11.4,0,0,1-.7,1.9q-.5,1-.9,2.4l-1.2,2.8-1.4,3h3.1c.5-1.2,1.1-2.5,1.8-3.8a27.7,27.7,0,0,1,2-3.4,10.9,10.9,0,0,1,2.2-2.5,4,4,0,0,1,2.2-1.2.9.9,0,0,1,.6.3,1.5,1.5,0,0,1,.5.6,4.1,4.1,0,0,1,.5.9l.3.8c0,.3-.2.5-.6.8l-1.2.5c-.1,0-.2,0-.2-.2S119.9,36.2,119.9,35.9Z" transform="translate(-1.8 -15.1)"/><path class="a876b747-498f-4461-bc49-965a0f046cda" d="M127.8,43.2a7.2,7.2,0,0,0-.7,1.1l-.8,1.5-.9,1.7a7,7,0,0,0-.6,1.7,1.4,1.4,0,0,0-.2.6c-.1.2-.1.4-.2.6v.4c0,.2,0,.3.1.3a.6.6,0,0,0,.4-.2l.8-.5.8-.5.5-.4,3-2.5,3.1-2.5a.4.4,0,0,1,.4-.2l.6.4L131,47.5l-3.3,2.6-.8.7-1,.6-.9.5h-.8l-.4-.3c-.2-.1-.3-.4-.5-.6l-.5-.7a1.3,1.3,0,0,1-.3-.7,1.9,1.9,0,0,1-.1-.8c.1-.3.1-.6.2-1l-1.5.8-1.5.7-1.3.3h-1c-.2-.1-.3-.4-.3-.8a3.9,3.9,0,0,1,.2-1.5,6.7,6.7,0,0,1,.7-1.8A5.7,5.7,0,0,1,119,44a4.7,4.7,0,0,1,1.5-1.3,4.1,4.1,0,0,1,1.9-.5l.6.2.6.5.5.7.4.6.3-.5c.2-.3.3-.5.5-.6h2.5Zm-8.7,5.2h.8l1.1-.4,1-.5,1-.5.9-1.9c0-.2-.1-.3-.3-.5l-.3-.5-.3-.4-.3-.3-.4.3-.8.9-.9,1.2-.8,1.2-.6,1C119.1,48.2,119,48.4,119.1,48.4Z" transform="translate(-1.8 -15.1)"/><path class="ab106e2d-74ca-4635-b5c1-9a7b3de14118" d="M133.1,43.6l.7-.4.9-.2h1.7c-.5.8-1,1.6-1.4,2.4l-1.4,2.4,2.3-1.9,2.2-1.6,1.9-1.1a2,2,0,0,1,1.2-.2,1.3,1.3,0,0,1,.7.6,3.3,3.3,0,0,1,.5,1.2,5.7,5.7,0,0,1,.4,1.4,7.6,7.6,0,0,1-.1,1.5,12.2,12.2,0,0,0,2.4-1,13.8,13.8,0,0,0,2.3-1.6,1.3,1.3,0,0,1,.6-.5c.1-.2.2-.2.4-.3h.3l.5.3-1,1-1,.8-1.6,1-1.1.6-1.1.4-1.2.4a10.4,10.4,0,0,1-1.6,2.2,8.6,8.6,0,0,1-1.7,1.3l-1.3.6h-.7l-.8-.2-.9-.7-.8-.7a.9.9,0,0,1-.3-.5,1.2,1.2,0,0,1,.6-.9l1.6-.8,1.7-.6,1.3-.3a3.6,3.6,0,0,0,.4-1.1l.3-1.2c0-.4.1-.8.1-1.1v-.6l-.9.5-1.2.9L136.5,47l-1.6,1.2-1.4,1.2-1.2,1a19.6,19.6,0,0,0-1.3,2.5l-1.2,2.4c-.5,1-1.1,2-1.7,3s-1.3,1.9-1.9,2.8l-1.9,2.3a5.9,5.9,0,0,1-1.7,1.3,1,1,0,0,1-.9-.1l-.9-1a5,5,0,0,1-.8-1.2,2.3,2.3,0,0,1-.2-1.1,2.4,2.4,0,0,1,.6-1.1,21.1,21.1,0,0,1,1.5-1.5l1.9-1.8,1.9-1.7,1.5-1.2.7-.5a37.8,37.8,0,0,1,1.7-3.5l1.8-3.2a10.9,10.9,0,0,1,.8-1.5C132.4,44.8,132.8,44.2,133.1,43.6Zm-6,11.6-.4.4-1,.8-1.2,1.2-1.4,1.3a15.9,15.9,0,0,0-1.3,1.3l-.9,1.1a1.1,1.1,0,0,0,.1.5l.3.7c.2.3.3.7.5,1a1.8,1.8,0,0,0,1-.6l1-1.4a7.7,7.7,0,0,0,1-1.8,16.2,16.2,0,0,0,1-1.8c.3-.6.5-1.2.8-1.7Zm11.8-5.6-1,.3-1.2.5-.9.4-.3.2a1,1,0,0,0,.4.5c.2.2.3.2.4.2l.6-.4.7-.6.8-.6Z" transform="translate(-1.8 -15.1)"/><path class="bb6d681e-ecfe-4470-8f23-2c8c29a66f77" d="M148.2,43.6l.7-.4.9-.2h1.7c-.5.8-1,1.6-1.4,2.4l-1.4,2.4,2.3-1.9,2.2-1.6,1.9-1.1a1.3,1.3,0,0,1,1.9.4,3.3,3.3,0,0,1,.5,1.2,3.2,3.2,0,0,1,.3,1.4,3.8,3.8,0,0,1,0,1.5,12.2,12.2,0,0,0,2.4-1,13.8,13.8,0,0,0,2.3-1.6,1.3,1.3,0,0,1,.6-.5c.1-.2.2-.2.4-.3h.3l.5.3-1,1-1,.8-1.6,1-1.1.6-1.1.4-1.2.4a10.4,10.4,0,0,1-1.6,2.2,8.6,8.6,0,0,1-1.7,1.3l-1.3.6H152l-.8-.2-.9-.7-.8-.7a.9.9,0,0,1-.3-.5,1.2,1.2,0,0,1,.6-.9l1.5-.8,1.8-.6,1.3-.3a3.6,3.6,0,0,0,.4-1.1l.3-1.2c0-.4.1-.8.1-1.1v-.6l-.9.5-1.3.9L151.6,47,150,48.2l-1.4,1.2-1.2,1a19.6,19.6,0,0,0-1.3,2.5l-1.2,2.4c-.5,1-1.1,2-1.7,3s-1.3,1.9-1.9,2.8l-1.9,2.3a5.9,5.9,0,0,1-1.7,1.3,1,1,0,0,1-.9-.1l-.9-1a5,5,0,0,1-.8-1.2,2.3,2.3,0,0,1-.2-1.1,2.4,2.4,0,0,1,.6-1.1l1.5-1.5,1.9-1.8,1.9-1.7,1.5-1.2.7-.5a37.8,37.8,0,0,1,1.7-3.5l1.8-3.2a10.9,10.9,0,0,1,.8-1.5C147.5,44.8,147.9,44.2,148.2,43.6Zm-6,11.6-.4.4-1,.8a6.8,6.8,0,0,0-1.2,1.2l-1.4,1.3a15.9,15.9,0,0,0-1.3,1.3l-.9,1.1a1.1,1.1,0,0,0,.1.5l.3.7a4.7,4.7,0,0,0,.5,1c.3,0,.6-.3,1-.6l1-1.4a7.7,7.7,0,0,0,1-1.8,16.2,16.2,0,0,0,1-1.8c.3-.6.5-1.2.8-1.7ZM154,49.6l-1,.3-1.2.5-.9.4-.3.2a1,1,0,0,0,.4.5c.2.2.3.2.4.2l.6-.4.7-.6.8-.6Z" transform="translate(-1.8 -15.1)"/><path class="a83c6ea2-60c4-4bac-b930-4e94cd4200e3" d="M169.1,43h3.2l-.9,1.5h.1v.2a13.7,13.7,0,0,1-1.3,2L169,48.4l-.5,1.1-.9,1.7,3.2-2.3,2.6-1.7,2-1.5a11.1,11.1,0,0,0,1.6-1.1c.2,0,.3.1.4.3s.1.3.2.5l-1.1.8-1.6,1.1-2.1,1.5L170,50.7l-1.9,1.4-1.9,1.3c-.4,1-1,2.1-1.6,3.3a39.6,39.6,0,0,1-2.2,3.4c-.7,1.1-1.5,2.1-2.2,3a10.5,10.5,0,0,1-2,1.6.8.8,0,0,1-.9-.1,2.8,2.8,0,0,1-1-.9,5.4,5.4,0,0,1-.7-1.3,1.5,1.5,0,0,1-.2-1.1,1.8,1.8,0,0,1,.6-1l1.5-1.6,1.9-1.8,1.9-1.6a15.3,15.3,0,0,1,1.5-1.3l.6-.5,1.4-2.8,1.5-2.6-1.9,2a10.1,10.1,0,0,1-1.9,1.7h-.4l-.7-.4-.9-.5-.6-.5q-.2-.1,0-.6a6.7,6.7,0,0,1,.6-1.2l.7-1.5.9-1.6.8-1.3.7-.9c0-.1.3-.1.6-.2l1.1-.2h1.5l-1.6,2.1-1.6,2.4-1.4,2.1a5.2,5.2,0,0,1-.7,1.1l.5.2.3.2h.2l1.1-1.2,1.7-1.9a16.3,16.3,0,0,0,1.7-2,20.3,20.3,0,0,0,1.5-1.8Zm-6.4,12.2c-.1,0-.2.2-.4.4l-1,.8L160,57.6l-1.4,1.3-1.2,1.3a7.4,7.4,0,0,0-.9,1.2c-.1,0-.1.2,0,.4a3,3,0,0,0,.4.8,9.3,9.3,0,0,0,.5,1,1.8,1.8,0,0,0,.9-.7,8.5,8.5,0,0,0,1.1-1.4l1-1.7c.3-.7.7-1.3.9-1.9l.8-1.6A9.1,9.1,0,0,1,162.7,55.2Z" transform="translate(-1.8 -15.1)"/><path class="a3e6c82d-c448-4191-a629-1ba277ce6c6d" d="M187.5,44.1l3.7-3.6a37.3,37.3,0,0,1,3.1-2.8l2.7-2,2.5-.9.4.9.6,1.3c.1.5.3.9.4,1.3a1.1,1.1,0,0,1-.1.9l-1.4,2.3L197.7,44,196,46.7l-1.7,2.5-1.2,2.2a6.4,6.4,0,0,0-.7,1.6.4.4,0,0,0,.1.3l.3.5.5.5h.8l1.1-.4h.3l.2.2v.3l-.3.3a3.5,3.5,0,0,1-2.2.8,2.2,2.2,0,0,1-1.7-.7l-.2-.5a9.4,9.4,0,0,1-.3-.9l-.3-1v-.9l.6-1.4.7-1.5c.2-.5.6-1,.9-1.6l1.4-2.1c.6-.8,1.2-1.8,2-2.8l2.7-3.5c.1-.1.1-.3.1-.6s-.1-.5-.2-.7l-.4-.9c-.2-.1-.6,0-1.2.4l-2,1.5-2.5,2.3-2.7,2.7-2.7,2.8-2.3,2.4a15.9,15.9,0,0,1-1.3,2.2,17.4,17.4,0,0,0-1.1,1.8,1,1,0,0,1-1,.3h-2l1.6-2.9,2-3.4,2-3.5,1.8-3.2a23.9,23.9,0,0,1,1.3-2.4,6.4,6.4,0,0,0,.5-1.1H192c-.1.2-.4.5-.6.9l-.9,1.5-1.2,2.2Z" transform="translate(-1.8 -15.1)"/><path class="a2381b14-7867-4e29-b5ad-96155ad8ec5c" d="M202.3,47.6a8.6,8.6,0,0,0-.5,2.7c.1.6.3.9.6,1a4.6,4.6,0,0,0,1.6-.1l1.9-.8,1.8-1,1.2-.9,3-2.4c.9-.7,1.5-1.3,2-1.6a.6.6,0,0,1,.5-.2l.6.4-.4.4-1.1.9-1.6,1.4L210,48.9a25.9,25.9,0,0,1-3.1,2,13.3,13.3,0,0,1-2.6,1.1,4.5,4.5,0,0,1-1.8.4,1.6,1.6,0,0,1-1.1-.3,5.4,5.4,0,0,1-1.6-2.8,6.5,6.5,0,0,1,.2-3.1,7.6,7.6,0,0,1,1.6-2.6,5.6,5.6,0,0,1,2.4-1.7l1.7-.3a2.5,2.5,0,0,1,1.3.3,1.3,1.3,0,0,1,.3,1,10.4,10.4,0,0,1-.2,1.5l-.6,1.5a2.2,2.2,0,0,1-.7.9l-.6.3-.9.2-1,.2Zm.5-.9,1.3-.3c.5-.1.8-.2.9-.4a1.1,1.1,0,0,0,.3-.5,4.2,4.2,0,0,0,.4-1,2.3,2.3,0,0,0,.3-1.1q.1-.4,0-.6c-.1-.1-.4,0-.7.3l-1.1,1.2-.9,1.4A2.9,2.9,0,0,0,202.8,46.7Z" transform="translate(-1.8 -15.1)"/><path class="edfc08fe-c11d-4f2e-ad40-36c349109159" d="M221,44.2l-.6,1.2a14.2,14.2,0,0,0-1.1,1.8l-1.1,1.7-.8,1.2v.2l.2.3c.1.1.1.2.2.2s.1.2.2.2l.4-.2,1-.6,1.1-.8,1.1-1a3.6,3.6,0,0,0,.9-.8l.4-.4a2.2,2.2,0,0,1-.5-.8,2.9,2.9,0,0,1-.2-.9,2.2,2.2,0,0,1,.1-.8l.3-.6a.8.8,0,0,1,.7-.1h.9l.9.4c.2.2.3.3.3.4a3.7,3.7,0,0,1-.5,1.1,3.5,3.5,0,0,0-.5.8l1.2-.2,1.3-.5,1.2-.6,1.1-.8.3-.3h.2l.2.2.3.4a4.3,4.3,0,0,1-1.2,1.1,10.8,10.8,0,0,1-3.6,1.5h-1.7l-1,1.1L221,50.1l-1.6,1.3-1.2.6a.7.7,0,0,1-.6-.2,3.4,3.4,0,0,1-.6-.6l-.5-.6c-.1-.3-.2-.4-.2-.5s.1-.7.1-1.1a10.4,10.4,0,0,1,.3-1.2l-1,1L214.6,50l-1.2,1.1-1.2.7c-.1,0-.3-.1-.7-.5a3.7,3.7,0,0,1-1.1-1.5,1.7,1.7,0,0,1,0-1,9.1,9.1,0,0,1,.7-1.4,11.9,11.9,0,0,1,.9-1.5l1.1-1.3.9-1.1a2.3,2.3,0,0,1,.5-.5h1.3l1,.2c-.3.5-.8,1-1.3,1.7l-1.6,2-1.4,1.8a7.5,7.5,0,0,0-.8,1.4c0,.1,0,.2.2.4s.2.4.3.4l.6-.4,1.1-1.1,1.5-1.6,1.4-1.6,1.3-1.4.8-.9H221Zm2.4,2.3c.2-.3.4-.5.4-.7a4.3,4.3,0,0,0,.4-.7c0-.1,0-.1-.1-.2h-.8c0,.2-.1.4-.1.7A1.8,1.8,0,0,0,223.4,46.5Z" transform="translate(-1.8 -15.1)"/><path class="ac2a9cd3-335d-4a6b-97ef-d70894065cd0" d="M244.9,34.9l2.3-.2h.7a29.1,29.1,0,0,1-1.2,3.5c-.6,1.3-1.2,2.6-1.9,3.9s-1.4,2.6-2.2,3.9l-2.2,3.3-2,2.6a6.4,6.4,0,0,1-1.4,1.2h-.6l-.7-.2a1.8,1.8,0,0,1-.7-.5,1.1,1.1,0,0,1-.3-.8,4.1,4.1,0,0,1-.1-1.1,2.4,2.4,0,0,1,0-1.2,8.1,8.1,0,0,1,.1-1.5c0-.5.1-1.1.1-1.8s.2-.2.5-.3a.8.8,0,0,1,.7.2c-.1.5-.1,1-.2,1.5s-.1,1.1-.1,1.6a6.1,6.1,0,0,1-.1,1.4v1a.9.9,0,0,0,.3.6.7.7,0,0,0,.6.1l.7-.9,1.3-2.4a30.5,30.5,0,0,0,1.8-3.2l1.8-3.4c.6-1.1,1.1-2.2,1.5-3.1l.9-2.1c-.2.4-.6.8-.9,1.4l-1.3,1.7a10.9,10.9,0,0,1-1.3,1.7l-1.2,1.6-1,1.1c-.2.2-.4.4-.6.4a2.2,2.2,0,0,1-1.1-.5,2.4,2.4,0,0,1-.9-.8l-.6-1a2.5,2.5,0,0,1-.2-.7c.1-.5.2-1.1.4-1.8a15.9,15.9,0,0,1,.7-2l.9-1.9.8-1.8.9.2.7.3.5.4c.1.1.1.1.1.2a11.8,11.8,0,0,1-.8,1.6,15.1,15.1,0,0,0-1.1,2.2,10,10,0,0,0-1,2.1,2.8,2.8,0,0,0-.4,1.6c.1.3.3.4.4.6l.5.2c.1.1.2.1.3-.1a19.9,19.9,0,0,0,1.6-2l1.7-2.4,1.7-2.5A19.9,19.9,0,0,1,244.9,34.9Z" transform="translate(-1.8 -15.1)"/><path class="ab3b518d-8944-473e-88f8-fe97760aa127" d="M247.4,47.6a8.6,8.6,0,0,0-.5,2.7c.1.6.3.9.6,1a4.6,4.6,0,0,0,1.6-.1l1.9-.8,1.8-1,1.2-.9,3-2.4c.9-.7,1.5-1.3,2-1.6a.6.6,0,0,1,.5-.2l.5.4-.3.4-1.1.9L257,47.4l-2,1.5a19.4,19.4,0,0,1-3,2,13.3,13.3,0,0,1-2.6,1.1,4.5,4.5,0,0,1-1.8.4,1.6,1.6,0,0,1-1.1-.3,5.4,5.4,0,0,1-1.6-2.8,6.5,6.5,0,0,1,.2-3.1,7.6,7.6,0,0,1,1.6-2.6,5.6,5.6,0,0,1,2.4-1.7,5.1,5.1,0,0,1,1.7-.3,2.5,2.5,0,0,1,1.3.3,1.3,1.3,0,0,1,.3,1,10.4,10.4,0,0,1-.2,1.5l-.6,1.5a3.5,3.5,0,0,1-.7.9l-.6.3-.9.2-1.1.2Zm.5-.9,1.3-.3c.4-.1.8-.2.9-.4a1.1,1.1,0,0,0,.3-.5,4.2,4.2,0,0,0,.4-1,2.3,2.3,0,0,0,.3-1.1q.2-.4,0-.6c-.2-.1-.4,0-.7.3l-1.1,1.2-.9,1.4A2.9,2.9,0,0,0,247.9,46.7Z" transform="translate(-1.8 -15.1)"/><path class="acccb5ec-f217-4245-8e4b-bb4ec35252f5" d="M268.1,43.2a9.1,9.1,0,0,0-.6,1.1,9.9,9.9,0,0,0-.9,1.5l-.9,1.7-.6,1.7c-.1.2-.1.4-.2.6s-.1.4-.1.6a.8.8,0,0,0-.1.4c0,.2,0,.3.1.3s.2,0,.4-.2l.8-.5.8-.5c.3-.2.5-.3.5-.4l3.1-2.5,3-2.5a.6.6,0,0,1,.5-.2l.6.4c-1,1-2.1,1.9-3.2,2.8l-3.2,2.6-.9.7-1,.6-.9.5h-.7l-.4-.3c-.2-.1-.4-.4-.6-.6l-.5-.7-.3-.7v-.8a4.4,4.4,0,0,1,.2-1l-1.6.8-1.5.7-1.3.3h-1c-.2-.1-.3-.4-.3-.8a7.7,7.7,0,0,1,.2-1.5,13.4,13.4,0,0,1,.7-1.8,9.1,9.1,0,0,1,1.1-1.6,8.7,8.7,0,0,1,1.5-1.3,4.1,4.1,0,0,1,1.9-.5l.6.2.6.5.5.7a2.1,2.1,0,0,1,.4.6l.4-.5.4-.6h2.5Zm-8.7,5.2h.9l1-.4,1.1-.5.9-.5a11.4,11.4,0,0,1,1-1.9l-.3-.5-.4-.5-.3-.4c-.1-.1-.2-.2-.2-.3l-.5.3-.7.9-.9,1.2-.9,1.2a9.3,9.3,0,0,0-.5,1A1,1,0,0,0,259.4,48.4Z" transform="translate(-1.8 -15.1)"/><path class="b429095c-585c-4fb2-b6ae-57a19fc60da2" d="M272.8,45l.8-.7,1.1-.9a1.8,1.8,0,0,1,.8-.5l.3-.2,1.3.3,1.2.3,1,.4c.3.1.4.1.4.2a9.4,9.4,0,0,0-.8,1.5l-1.2,2.4a24.4,24.4,0,0,0-1,2.4,7.4,7.4,0,0,0-.6,1.8l.9-.3.9-.3,1.1-.5,1.5-1,2.1-1.6,2-1.6,1.6-1.3,1.1-.9,1-.7,1.2-.5,1.2-.4,1-.3a8.6,8.6,0,0,1,2.3.2,7.5,7.5,0,0,1,1.8.8,8.6,8.6,0,0,1,1.3,1.4,2.9,2.9,0,0,1,.4,1.6,2.4,2.4,0,0,1-.5,1.7,5.9,5.9,0,0,1-1.6,1.5,2.5,2.5,0,0,1-1.6.4,2.5,2.5,0,0,1-2.2-1.4,2.6,2.6,0,0,1-.3-1.1,1.5,1.5,0,0,1,.6-.9,2.6,2.6,0,0,1,1.6-.3v1.2c-.3,0-.6,0-.7.3a.6.6,0,0,0-.1.7c.1.3.3.4.7.5s1,0,1.7-.3a3.3,3.3,0,0,0,1.1-1.3,2,2,0,0,0,.2-1.3,3.4,3.4,0,0,0-.6-1.2,4.3,4.3,0,0,0-1-.9,3.5,3.5,0,0,0-1.4-.6H292l-2,.6a11.7,11.7,0,0,0-2.5,1.5l-1.2,1L284.7,48l-1.8,1.4-2,1.5a20.1,20.1,0,0,1-3.2,1.7,9.3,9.3,0,0,1-2.4.5,2.4,2.4,0,0,1-.9-1.2,2.6,2.6,0,0,1-.2-1.5,5,5,0,0,1,.3-1.6,7.7,7.7,0,0,1,.7-1.6,8,8,0,0,1,.8-1.6l.8-1.3h-.4l-.9-.2-1.7,1.4-.8.6-.4-.3c-.1-.1-.1-.2-.2-.2s0-.1.1-.2Z" transform="translate(-1.8 -15.1)"/><path class="b71fcecc-8826-45cc-9056-12cbc60ad328" d="M97.5,26.8A28.1,28.1,0,0,0,93,21.5a38,38,0,0,0-5.5-4.2h.1l1.8.7a12.8,12.8,0,0,1,2.5,1.5,14.5,14.5,0,0,1,1.8,1.7l1.1,1.2,1.3,1.8.9,1.5.6,1Z" transform="translate(-1.8 -15.1)"/><path class="b71fcecc-8826-45cc-9056-12cbc60ad328" d="M110.8,23.9a25.1,25.1,0,0,0-6.1,1A18.3,18.3,0,0,0,99,27.4h-.1l.5-.3.7-.6,1.7-1.1,1.3-.6,2.5-.8a18.4,18.4,0,0,1,3.3-.3A12.5,12.5,0,0,1,110.8,23.9Z" transform="translate(-1.8 -15.1)"/><path class="bc28f5cd-5f0b-49a5-8a25-7a503b9c095e" d="M86.8,24.4l1.6-.2a6.1,6.1,0,0,1,1.9.1,4.1,4.1,0,0,1,1.6.3l1.4.4,1.8.8,1.3.9.9.7a.1.1,0,0,0,.1.1,22.1,22.1,0,0,0-10.6-3.1Z" transform="translate(-1.8 -15.1)"/><path class="bc28f5cd-5f0b-49a5-8a25-7a503b9c095e" d="M97.4,27.9h-.6l-1.8.2-2.1.4-1.9.7-1.6.6a10.3,10.3,0,0,0-2.1,1.1c-.1,0-.1,0-.1.1a11.6,11.6,0,0,1,10.2-3.1Z" transform="translate(-1.8 -15.1)"/><path class="b71fcecc-8826-45cc-9056-12cbc60ad328" d="M98.8,28.4a14.5,14.5,0,0,1,8.2,7.9,2.1,2.1,0,0,1-.4-.6l-1.5-1.9-1.3-1.4-1.7-1.6-1.1-.9-1.5-1-.7-.4Z" transform="translate(-1.8 -15.1)"/><path class="bc28f5cd-5f0b-49a5-8a25-7a503b9c095e" d="M98.7,26.9l.4-.5,1.1-1.5a7.7,7.7,0,0,1,1.8-1.8l1.4-1.1a15.1,15.1,0,0,1,2.2-1.1l1.9-.5h.1A23.1,23.1,0,0,0,98.7,26.9Z" transform="translate(-1.8 -15.1)"/><path class="bc28f5cd-5f0b-49a5-8a25-7a503b9c095e" d="M104.5,17.8a27.9,27.9,0,0,0-6.1,8.8h0a17.2,17.2,0,0,1,.7-2.1,21.2,21.2,0,0,1,1.1-2.1L101,21l1.2-1.4,1.3-1.1,1-.7Z" transform="translate(-1.8 -15.1)"/><path class="bc28f5cd-5f0b-49a5-8a25-7a503b9c095e" d="M98.8,28.6l.7.6A9,9,0,0,1,101,31a9.9,9.9,0,0,1,1.3,2,10.1,10.1,0,0,0,.7,1.5,11.7,11.7,0,0,1,.6,2l.3,1.3h0a23.3,23.3,0,0,0-2.1-4.9,26.1,26.1,0,0,0-3.1-4.3Z" transform="translate(-1.8 -15.1)"/><path class="bc28f5cd-5f0b-49a5-8a25-7a503b9c095e" d="M99.2,27.8a9,9,0,0,1,4,0,9.5,9.5,0,0,1,5,2.5l-.5-.3-1.9-.8-1.1-.5-1.4-.4-2-.4Z" transform="translate(-1.8 -15.1)"/><path class="b71fcecc-8826-45cc-9056-12cbc60ad328" d="M107.6,27.4a15.1,15.1,0,0,0-7.9.1,8.8,8.8,0,0,1,4.2-1.1A9.7,9.7,0,0,1,107.6,27.4Z" transform="translate(-1.8 -15.1)"/><path class="b71fcecc-8826-45cc-9056-12cbc60ad328" d="M97.5,28.4A21.5,21.5,0,0,0,92,35.3a1.4,1.4,0,0,1,.2-.6A8.9,8.9,0,0,1,93,33a8.6,8.6,0,0,1,1-1.6A7.5,7.5,0,0,1,95.2,30,5.9,5.9,0,0,1,97,28.7Z" transform="translate(-1.8 -15.1)"/><path class="bc28f5cd-5f0b-49a5-8a25-7a503b9c095e" d="M97.3,27.1a16.1,16.1,0,0,0-7-4.4,9.2,9.2,0,0,1,4,1.4A9.5,9.5,0,0,1,97.3,27.1Z" transform="translate(-1.8 -15.1)"/><path class="b71fcecc-8826-45cc-9056-12cbc60ad328" d="M98.1,28.6A26.6,26.6,0,0,0,97,33.3a25.7,25.7,0,0,0-.2,4.8,22.7,22.7,0,0,1-.2-4.9A12.5,12.5,0,0,1,98.1,28.6Z" transform="translate(-1.8 -15.1)"/><path class="b71fcecc-8826-45cc-9056-12cbc60ad328" d="M97.9,26.7a24.2,24.2,0,0,0-.7-4.7,21.5,21.5,0,0,0-1.4-4.5A14.8,14.8,0,0,1,97.9,26.7Z" transform="translate(-1.8 -15.1)"/><path class="bc28f5cd-5f0b-49a5-8a25-7a503b9c095e" d="M99.4,28.3h.5l2,.4,1.7.8,1.3.8,1.2,1.2.3.4-1-.7a16.4,16.4,0,0,0-2.2-1.4l-1.5-.7a8.1,8.1,0,0,0-2.2-.7h-.1Z" transform="translate(-1.8 -15.1)"/><path class="b71fcecc-8826-45cc-9056-12cbc60ad328" d="M88.7,26.6l.6-.2a8.5,8.5,0,0,1,2.3-.3,9.1,9.1,0,0,1,2.3.3l1,.4H95l-1-.2a15.1,15.1,0,0,0-3-.1l-1.9.2h-.2Z" transform="translate(-1.8 -15.1)"/><path class="bc28f5cd-5f0b-49a5-8a25-7a503b9c095e" d="M96.7,16a11.6,11.6,0,0,1,1.6,7.5A21.4,21.4,0,0,0,96.7,16Z" transform="translate(-1.8 -15.1)"/><path class="bc28f5cd-5f0b-49a5-8a25-7a503b9c095e" d="M91.9,31.5a7.5,7.5,0,0,1,5.5-3.4A14.9,14.9,0,0,0,91.9,31.5Z" transform="translate(-1.8 -15.1)"/><path class="b71fcecc-8826-45cc-9056-12cbc60ad328" d="M89.5,31.8a9,9,0,0,1,5.2-3.3A25.5,25.5,0,0,0,89.5,31.8Z" transform="translate(-1.8 -15.1)"/><path class="bc28f5cd-5f0b-49a5-8a25-7a503b9c095e" d="M97.6,26.4a17.2,17.2,0,0,0-2.9-6.1A9.5,9.5,0,0,1,97.6,26.4Z" transform="translate(-1.8 -15.1)"/><path class="bc28f5cd-5f0b-49a5-8a25-7a503b9c095e" d="M98.5,28.7A10,10,0,0,1,99.7,35,19,19,0,0,0,98.5,28.7Z" transform="translate(-1.8 -15.1)"/><path class="b71fcecc-8826-45cc-9056-12cbc60ad328" d="M98.3,25.4a9.1,9.1,0,0,1,2.4-5.6l-.8,1.3-.6,1.4L98.7,24C98.6,24.5,98.4,25,98.3,25.4Z" transform="translate(-1.8 -15.1)"/><path class="b71fcecc-8826-45cc-9056-12cbc60ad328" d="M106.5,18.4a12.5,12.5,0,0,0-4.5,3.1,6.4,6.4,0,0,1,2-2A4.7,4.7,0,0,1,106.5,18.4Z" transform="translate(-1.8 -15.1)"/><path class="b71fcecc-8826-45cc-9056-12cbc60ad328" d="M108.6,32.3a13.2,13.2,0,0,0-4.5-3.2A6.8,6.8,0,0,1,108.6,32.3Z" transform="translate(-1.8 -15.1)"/><path class="bc28f5cd-5f0b-49a5-8a25-7a503b9c095e" d="M105.4,25.3a5,5,0,0,1,2.4-.3,5.8,5.8,0,0,1,2.9.9A11.9,11.9,0,0,0,105.4,25.3Z" transform="translate(-1.8 -15.1)"/><path class="b71fcecc-8826-45cc-9056-12cbc60ad328" d="M93.3,24.4A25.4,25.4,0,0,0,88.6,23,8.3,8.3,0,0,1,93.3,24.4Z" transform="translate(-1.8 -15.1)"/><path class="b71fcecc-8826-45cc-9056-12cbc60ad328" d="M88.7,26.6l.2.2h-.6l-1.1.4h.2l1.2-.5Z" transform="translate(-1.8 -15.1)"/><path class="bc28f5cd-5f0b-49a5-8a25-7a503b9c095e" d="M97.7,28.6a1.2,1.2,0,0,0-.5.5,10.7,10.7,0,0,0-1.4,1.6l-1.1,1.6a7.5,7.5,0,0,1-.7,1.2,12.2,12.2,0,0,1-.7,1.7c-.2.5-.3,1.1-.5,1.6l-.3,1.5a2.2,2.2,0,0,0-.1.8v.7h0l.2-.6h0l.3-.9.6-1.7c.2-.6.5-1.3.8-2l.6-1.2a10.9,10.9,0,0,1,.8-1.5,6.4,6.4,0,0,1,.8-1.4l1.1-1.5.2-.3Z" transform="translate(-1.8 -15.1)"/><path class="bc28f5cd-5f0b-49a5-8a25-7a503b9c095e" d="M99.4,28.3h0Z" transform="translate(-1.8 -15.1)"/><path class="b71fcecc-8826-45cc-9056-12cbc60ad328" d="M93.6,18.5v-.3l-.2-.2h.3v-.3h.1l.2.2h.3l-.2.2v.3h-.3l-.2.2C93.7,18.6,93.6,18.5,93.6,18.5Z" transform="translate(-1.8 -15.1)"/><path class="bc28f5cd-5f0b-49a5-8a25-7a503b9c095e" d="M85.8,25v-.3h-.2c-.1-.1-.1-.1,0-.1h.2v-.3H86l.2.2h.3l-.2.2v.3h-.5C85.8,25.1,85.8,25,85.8,25Z" transform="translate(-1.8 -15.1)"/><path class="b71fcecc-8826-45cc-9056-12cbc60ad328" d="M87.5,32.7v-.2h0v-.2h0v.2h.1v.2h-.4Z" transform="translate(-1.8 -15.1)"/><path class="bc28f5cd-5f0b-49a5-8a25-7a503b9c095e" d="M89.8,35.2v-.3h0v-.2h0l.2.2h.3l-.2.3v.2h-.5Z" transform="translate(-1.8 -15.1)"/><path class="b71fcecc-8826-45cc-9056-12cbc60ad328" d="M91.7,41.4v-.3l-.3-.2h.4v-.3c.1-.1.1-.1.1,0l.2.2h.4l-.2.3v.3c.1,0,0,.1,0,.1h-.3l-.3.2C91.7,41.5,91.7,41.5,91.7,41.4Z" transform="translate(-1.8 -15.1)"/><path class="bc28f5cd-5f0b-49a5-8a25-7a503b9c095e" d="M95.1,37.4v-.3h0v-.2s.1-.1.1,0h.3s.1.1,0,.1v.4h-.5Z" transform="translate(-1.8 -15.1)"/><path class="bc28f5cd-5f0b-49a5-8a25-7a503b9c095e" d="M85.4,28.1v-.2l-.2-.2h.2v-.2h0l.2.2h.2V28s-.1.1-.1,0h-.4Z" transform="translate(-1.8 -15.1)"/><path class="b71fcecc-8826-45cc-9056-12cbc60ad328" d="M98.3,34.2v-.3h.1v-.2c.1-.1.1-.1.1,0l.2.2H99l-.2.3v.2h-.6Z" transform="translate(-1.8 -15.1)"/><path class="b71fcecc-8826-45cc-9056-12cbc60ad328" d="M89.7,27.9v-.2l-.2-.2c-.1,0-.1,0,0-.1h.2v-.3h.1v.2h.3s.1,0,0,.1v.4H90l-.2.2C89.7,28,89.7,28,89.7,27.9Z" transform="translate(-1.8 -15.1)"/><path class="bc28f5cd-5f0b-49a5-8a25-7a503b9c095e" d="M89.7,21.9v-.3h-.2c-.1-.1-.1-.1,0-.1h.2V21h.1v.3h.3s.1.1,0,.1v.5H90l-.2.2Z" transform="translate(-1.8 -15.1)"/><path class="bc28f5cd-5f0b-49a5-8a25-7a503b9c095e" d="M108.1,26.9v-.3h.1v-.2c0-.1.1-.1.1,0l.2.2h.3l-.2.2v.3h-.5C108.1,27,108.1,26.9,108.1,26.9Z" transform="translate(-1.8 -15.1)"/><path class="bc28f5cd-5f0b-49a5-8a25-7a503b9c095e" d="M99,20.2v-.3l-.2-.2h.3v-.3h.1l.2.2h.2a.1.1,0,0,1,.1.1l-.2.2v.3h-.3l-.2.2Z" transform="translate(-1.8 -15.1)"/><path class="b71fcecc-8826-45cc-9056-12cbc60ad328" d="M87,20.2V20l-.2-.2c-.1,0-.1-.1,0-.1H87v-.2h.1v.2h.3v.5h-.3l-.2.2C87,20.3,87,20.3,87,20.2Z" transform="translate(-1.8 -15.1)"/><path class="b71fcecc-8826-45cc-9056-12cbc60ad328" d="M106.3,22.8v-.3h.1V22h0l.2.2h.3l-.2.3v.2h-.3l-.2.2Z" transform="translate(-1.8 -15.1)"/><path class="bc28f5cd-5f0b-49a5-8a25-7a503b9c095e" d="M99.4,36.7h.4v.2h-.5Z" transform="translate(-1.8 -15.1)"/><path class="bc28f5cd-5f0b-49a5-8a25-7a503b9c095e" d="M96.3,15.3h.4v.2h-.5Z" transform="translate(-1.8 -15.1)"/><path class="bc28f5cd-5f0b-49a5-8a25-7a503b9c095e" d="M86.9,16.7h.4v.2h-.2c-.1,0-.1,0-.1-.1h-.1Z" transform="translate(-1.8 -15.1)"/><path class="bc28f5cd-5f0b-49a5-8a25-7a503b9c095e" d="M100.9,33.8h.2c0-.1,0-.1.1,0h.1V34h-.5Z" transform="translate(-1.8 -15.1)"/><path class="bc28f5cd-5f0b-49a5-8a25-7a503b9c095e" d="M107.2,36.8h.2v-.2h0l.2.2h.3l-.2.2v.2h-.3l-.2.2h0V37h-.2C107.1,36.9,107.1,36.8,107.2,36.8Z" transform="translate(-1.8 -15.1)"/><path class="bc28f5cd-5f0b-49a5-8a25-7a503b9c095e" d="M105,35.1h0v-.2h0Z" transform="translate(-1.8 -15.1)"/><path class="bc28f5cd-5f0b-49a5-8a25-7a503b9c095e" d="M106.9,33.9h.2v-.2h.1v.2h.3l-.2.2v.2H107c-.1,0-.1,0-.1-.1v-.2l-.2-.2Z" transform="translate(-1.8 -15.1)"/><path class="b71fcecc-8826-45cc-9056-12cbc60ad328" d="M111,26.5h.2l.2-.2h0v.2h.2l-.2.2V27h-.5v-.4Z" transform="translate(-1.8 -15.1)"/><path class="b71fcecc-8826-45cc-9056-12cbc60ad328" d="M106.7,32.5h0Z" transform="translate(-1.8 -15.1)"/><path class="bc28f5cd-5f0b-49a5-8a25-7a503b9c095e" d="M108.4,35.1h.3v.2h-.3Z" transform="translate(-1.8 -15.1)"/><path class="bc28f5cd-5f0b-49a5-8a25-7a503b9c095e" d="M109.2,32.9h0Z" transform="translate(-1.8 -15.1)"/><path class="bc28f5cd-5f0b-49a5-8a25-7a503b9c095e" d="M110.1,31.5h0Z" transform="translate(-1.8 -15.1)"/><path class="bc28f5cd-5f0b-49a5-8a25-7a503b9c095e" d="M110.1,27.8h0Z" transform="translate(-1.8 -15.1)"/><path class="bc28f5cd-5f0b-49a5-8a25-7a503b9c095e" d="M107.4,21.4h0Z" transform="translate(-1.8 -15.1)"/><path class="bc28f5cd-5f0b-49a5-8a25-7a503b9c095e" d="M96.9,18.3H97c.1-.1.1-.1.1,0h-.2Z" transform="translate(-1.8 -15.1)"/><path class="bc28f5cd-5f0b-49a5-8a25-7a503b9c095e" d="M91.5,21.9h0Z" transform="translate(-1.8 -15.1)"/><path class="bc28f5cd-5f0b-49a5-8a25-7a503b9c095e" d="M105.6,17.7h.2V18h-.2Z" transform="translate(-1.8 -15.1)"/><path class="bc28f5cd-5f0b-49a5-8a25-7a503b9c095e" d="M103.1,17.5h0Z" transform="translate(-1.8 -15.1)"/><path class="bc28f5cd-5f0b-49a5-8a25-7a503b9c095e" d="M104.6,16.4h.2v-.2h.1v.2h.2s.1,0,0,.1h-.1v.2h-.5v-.2h-.1C104.5,16.5,104.6,16.4,104.6,16.4Z" transform="translate(-1.8 -15.1)"/><path class="b71fcecc-8826-45cc-9056-12cbc60ad328" d="M105.5,19.7h.4v.3h0v.2h-.1v-.2h-.2v-.4Z" transform="translate(-1.8 -15.1)"/><path class="bc28f5cd-5f0b-49a5-8a25-7a503b9c095e" d="M108.1,19.3h.2v-.2c.1,0,.1,0,.1.1v.2h-.1v.2c0,.1-.1.1-.1,0H108s-.1-.1,0-.1v-.4Z" transform="translate(-1.8 -15.1)"/><path class="b71fcecc-8826-45cc-9056-12cbc60ad328" d="M101.5,18.3h.4v.2h.1c.1,0,0,.1,0,.1h-.2V19h-.1v-.2h-.3l.2-.2v-.2Z" transform="translate(-1.8 -15.1)"/><path class="b71fcecc-8826-45cc-9056-12cbc60ad328" d="M98.2,16.6h.4v.2h-.1v.2h-.1v-.2h-.2v-.4Z" transform="translate(-1.8 -15.1)"/><path class="bc28f5cd-5f0b-49a5-8a25-7a503b9c095e" d="M90.4,17.4h.5v.2H91c.1,0,.1.1,0,.1h-.2v.2h-.1v-.2h-.3l.2-.2v-.2Z" transform="translate(-1.8 -15.1)"/><path class="bc28f5cd-5f0b-49a5-8a25-7a503b9c095e" d="M110.7,30h.2v-.2h0V30h-.3v-.2Z" transform="translate(-1.8 -15.1)"/><path class="bc28f5cd-5f0b-49a5-8a25-7a503b9c095e" d="M108.3,28.9h0Z" transform="translate(-1.8 -15.1)"/><path class="bc28f5cd-5f0b-49a5-8a25-7a503b9c095e" d="M110.8,24.8h0Z" transform="translate(-1.8 -15.1)"/><path class="b71fcecc-8826-45cc-9056-12cbc60ad328" d="M102.1,37.6h.2v-.2h.3v.2h-.2v-.2h-.2Z" transform="translate(-1.8 -15.1)"/><path class="bc28f5cd-5f0b-49a5-8a25-7a503b9c095e" d="M103.8,38.5h.5v.2l.2.2h-.2v.2c-.1.1-.1.1-.1,0h-.4v-.5Z" transform="translate(-1.8 -15.1)"/><path class="bc28f5cd-5f0b-49a5-8a25-7a503b9c095e" d="M90.5,32.6h.2s0,.1-.1,0h-.1Z" transform="translate(-1.8 -15.1)"/><path class="bc28f5cd-5f0b-49a5-8a25-7a503b9c095e" d="M87.3,29.5h0Z" transform="translate(-1.8 -15.1)"/><path class="b71fcecc-8826-45cc-9056-12cbc60ad328" d="M286,70.4a43,43,0,0,0-6.8-8,47.3,47.3,0,0,0-8.4-6.3h.3l2.7,1.1a20.6,20.6,0,0,1,3.7,2.3,16.2,16.2,0,0,1,2.8,2.5c.5.6,1.1,1.1,1.6,1.8a31.6,31.6,0,0,1,2,2.7,25.3,25.3,0,0,1,1.3,2.2,11.9,11.9,0,0,1,.8,1.6Z" transform="translate(-1.8 -15.1)"/><path class="b71fcecc-8826-45cc-9056-12cbc60ad328" d="M305.9,66a36.1,36.1,0,0,0-9.2,1.5,31.1,31.1,0,0,0-8.6,3.7h0l.6-.6,1.2-.9a22,22,0,0,1,2.6-1.5l1.9-1a22.9,22.9,0,0,1,3.7-1.2,16.3,16.3,0,0,1,4.9-.4A13.5,13.5,0,0,1,305.9,66Z" transform="translate(-1.8 -15.1)"/><path class="bc28f5cd-5f0b-49a5-8a25-7a503b9c095e" d="M269.9,66.7l2.3-.3a15.1,15.1,0,0,1,3,.1l2.3.5,2.1.6,2.7,1.3,2,1.3,1.4,1.1a.1.1,0,0,0,.1.1,33.3,33.3,0,0,0-15.9-4.6Z" transform="translate(-1.8 -15.1)"/><path class="bc28f5cd-5f0b-49a5-8a25-7a503b9c095e" d="M285.7,72h-.9l-2.6.3a13.2,13.2,0,0,0-3.2.7l-2.9.9-2.4,1-3.2,1.6h-.1A17.4,17.4,0,0,1,285.7,72Z" transform="translate(-1.8 -15.1)"/><path class="b71fcecc-8826-45cc-9056-12cbc60ad328" d="M288,72.8a21.4,21.4,0,0,1,12.2,11.8l-.6-.9-2.2-2.8-2-2.1a30.7,30.7,0,0,0-2.6-2.5L291.2,75l-2.3-1.5-1-.6Z" transform="translate(-1.8 -15.1)"/><path class="bc28f5cd-5f0b-49a5-8a25-7a503b9c095e" d="M287.7,70.5l.6-.8,1.6-2.2a37,37,0,0,1,2.8-2.8l2-1.5a15.4,15.4,0,0,1,3.4-1.7,15.7,15.7,0,0,1,2.9-.8h0A37.7,37.7,0,0,0,287.7,70.5Z" transform="translate(-1.8 -15.1)"/><path class="bc28f5cd-5f0b-49a5-8a25-7a503b9c095e" d="M296.4,56.8a42.3,42.3,0,0,0-9.2,13.3v-.2a30.1,30.1,0,0,1,1.1-3.2,17.7,17.7,0,0,1,1.5-3.1c.4-.7.9-1.3,1.3-1.9l1.8-2.2,2-1.7a7.1,7.1,0,0,1,1.4-1Z" transform="translate(-1.8 -15.1)"/><path class="bc28f5cd-5f0b-49a5-8a25-7a503b9c095e" d="M287.8,73.1l1.1.9a19.4,19.4,0,0,1,2.3,2.6,15.3,15.3,0,0,1,1.9,3,22.9,22.9,0,0,1,1,2.3,16,16,0,0,1,1,3.1c.2.6.3,1.3.5,1.9h0a39.4,39.4,0,0,0-3.2-7.3,59.9,59.9,0,0,0-4.6-6.6Z" transform="translate(-1.8 -15.1)"/><path class="bc28f5cd-5f0b-49a5-8a25-7a503b9c095e" d="M288.5,71.9a14.7,14.7,0,0,1,5.9-.1,15.2,15.2,0,0,1,7.6,3.8l-.8-.4-2.8-1.3-1.7-.6a8.3,8.3,0,0,0-2.1-.6,15,15,0,0,0-2.9-.6A11.5,11.5,0,0,0,288.5,71.9Z" transform="translate(-1.8 -15.1)"/><path class="b71fcecc-8826-45cc-9056-12cbc60ad328" d="M301.1,71.2a24,24,0,0,0-11.9.1,14,14,0,0,1,6.4-1.5A11.5,11.5,0,0,1,301.1,71.2Z" transform="translate(-1.8 -15.1)"/><path class="b71fcecc-8826-45cc-9056-12cbc60ad328" d="M285.9,72.8a33.1,33.1,0,0,0-8.3,10.3l.3-.9,1.2-2.6a18.8,18.8,0,0,1,1.6-2.3,17.3,17.3,0,0,1,1.7-2.1,18.6,18.6,0,0,1,2.8-2.1Z" transform="translate(-1.8 -15.1)"/><path class="bc28f5cd-5f0b-49a5-8a25-7a503b9c095e" d="M285.7,70.8c-3.1-2.9-6.4-5.4-10.5-6.6,1-.2,4.4,1.1,6,2.1A16.1,16.1,0,0,1,285.7,70.8Z" transform="translate(-1.8 -15.1)"/><path class="b71fcecc-8826-45cc-9056-12cbc60ad328" d="M286.8,73.1a41.8,41.8,0,0,0-1.6,7,34.7,34.7,0,0,0-.3,7.2c-.4-.6-.5-5.1-.3-7.3A18.7,18.7,0,0,1,286.8,73.1Z" transform="translate(-1.8 -15.1)"/><path class="b71fcecc-8826-45cc-9056-12cbc60ad328" d="M286.5,70.1a56.2,56.2,0,0,0-1-7,37.3,37.3,0,0,0-2.1-6.7A21.9,21.9,0,0,1,286.5,70.1Z" transform="translate(-1.8 -15.1)"/><path class="bc28f5cd-5f0b-49a5-8a25-7a503b9c095e" d="M288.8,72.6h.7l3,.6a12.3,12.3,0,0,1,2.6,1.2l1.9,1.3a10.7,10.7,0,0,1,1.9,1.8l.4.5-1.4-1.1-3.4-2.1-2.2-1a16,16,0,0,0-3.3-1.1h-.2Z" transform="translate(-1.8 -15.1)"/><path class="b71fcecc-8826-45cc-9056-12cbc60ad328" d="M272.7,70l.8-.3a14.7,14.7,0,0,1,3.6-.4,10,10,0,0,1,3.4.5l1.6.6h.1l-1.5-.3a33.9,33.9,0,0,0-4.5-.2,13.6,13.6,0,0,0-2.9.3H273Z" transform="translate(-1.8 -15.1)"/><path class="bc28f5cd-5f0b-49a5-8a25-7a503b9c095e" d="M284.8,54.1a18.5,18.5,0,0,1,2.4,11.3A36.2,36.2,0,0,0,284.8,54.1Z" transform="translate(-1.8 -15.1)"/><path class="bc28f5cd-5f0b-49a5-8a25-7a503b9c095e" d="M277.5,77.5a11.3,11.3,0,0,1,8.3-5.2A21.2,21.2,0,0,0,277.5,77.5Z" transform="translate(-1.8 -15.1)"/><path class="b71fcecc-8826-45cc-9056-12cbc60ad328" d="M273.8,77.9a13.9,13.9,0,0,1,8-5A37,37,0,0,0,273.8,77.9Z" transform="translate(-1.8 -15.1)"/><path class="bc28f5cd-5f0b-49a5-8a25-7a503b9c095e" d="M286.1,69.7a28.9,28.9,0,0,0-4.4-9.2A14.8,14.8,0,0,1,286.1,69.7Z" transform="translate(-1.8 -15.1)"/><path class="bc28f5cd-5f0b-49a5-8a25-7a503b9c095e" d="M287.5,73.2a14.7,14.7,0,0,1,1.7,9.4A30.5,30.5,0,0,0,287.5,73.2Z" transform="translate(-1.8 -15.1)"/><path class="b71fcecc-8826-45cc-9056-12cbc60ad328" d="M287.2,68.3a13.6,13.6,0,0,1,3.5-8.5l-1.1,2a20,20,0,0,0-1,2.1,19.5,19.5,0,0,0-.8,2.2A18,18,0,0,0,287.2,68.3Z" transform="translate(-1.8 -15.1)"/><path class="b71fcecc-8826-45cc-9056-12cbc60ad328" d="M299.5,57.8a18.4,18.4,0,0,0-6.8,4.5,13.8,13.8,0,0,1,2.9-3A8.2,8.2,0,0,1,299.5,57.8Z" transform="translate(-1.8 -15.1)"/><path class="b71fcecc-8826-45cc-9056-12cbc60ad328" d="M302.6,78.7a18.5,18.5,0,0,0-6.8-4.9A10.2,10.2,0,0,1,302.6,78.7Z" transform="translate(-1.8 -15.1)"/><path class="bc28f5cd-5f0b-49a5-8a25-7a503b9c095e" d="M297.9,68.1a9,9,0,0,1,3.6-.5,9.1,9.1,0,0,1,4.2,1.4A17.1,17.1,0,0,0,297.9,68.1Z" transform="translate(-1.8 -15.1)"/><path class="b71fcecc-8826-45cc-9056-12cbc60ad328" d="M279.6,66.7a29.3,29.3,0,0,0-7-2C273.9,64.3,278.4,65.6,279.6,66.7Z" transform="translate(-1.8 -15.1)"/><path class="b71fcecc-8826-45cc-9056-12cbc60ad328" d="M272.7,70l.3.3-.9.2-1.7.5h-.1l.5-.2,1.7-.8Z" transform="translate(-1.8 -15.1)"/><path class="bc28f5cd-5f0b-49a5-8a25-7a503b9c095e" d="M286.2,73l-.7.8c-.7.8-1.5,1.6-2.1,2.4l-1.6,2.4-1.1,1.9c-.3.8-.7,1.6-1,2.5a24.4,24.4,0,0,0-1.3,4.6c-.1.4-.1.8-.2,1.2s-.1.7-.1,1h0l.2-1h0a.1.1,0,0,0,.1-.1,9.3,9.3,0,0,0,.4-1.3l.9-2.5c.4-1,.8-2.1,1.3-3.1a14.2,14.2,0,0,1,.8-1.8l1.3-2.3a13.2,13.2,0,0,1,1.2-2l1.6-2.3.3-.4Z" transform="translate(-1.8 -15.1)"/><path class="bc28f5cd-5f0b-49a5-8a25-7a503b9c095e" d="M288.8,72.6h0Z" transform="translate(-1.8 -15.1)"/><path class="b71fcecc-8826-45cc-9056-12cbc60ad328" d="M280.1,57.9v-.5l-.4-.2h0l.5-.2v-.4s.1-.1.1,0l.3.3h.4a.1.1,0,0,1,.1.1l-.3.4v.4c.1,0,0,.1,0,.1l-.5-.2-.3.3Z" transform="translate(-1.8 -15.1)"/><path class="bc28f5cd-5f0b-49a5-8a25-7a503b9c095e" d="M268.3,67.7v-.5L268,67c-.1-.1-.1-.1,0-.1l.4-.2v-.4h.1l.3.3h.4a.1.1,0,0,1,.1.1l-.3.4.2.4h-.1l-.4-.2-.4.3Z" transform="translate(-1.8 -15.1)"/><path class="b71fcecc-8826-45cc-9056-12cbc60ad328" d="M270.9,79.2v-.3h.1v-.2s.1-.1.1,0v.2h.3v.5h-.3l-.2.2Z" transform="translate(-1.8 -15.1)"/><path class="bc28f5cd-5f0b-49a5-8a25-7a503b9c095e" d="M274.3,83v-.4l-.3-.2c-.1-.1-.1-.1,0-.1h.3l.2-.4h.1l.2.3h.4l-.2.4v.3c.1.1,0,.1,0,.1h-.4l-.3.2Z" transform="translate(-1.8 -15.1)"/><path class="b71fcecc-8826-45cc-9056-12cbc60ad328" d="M277.2,92.4v-.6l-.4-.3c-.1,0-.1-.1,0-.1l.5-.2v-.5h.2l.3.4h.5a.1.1,0,0,1,.1.1l-.4.5.2.5h-.6l-.4.3Z" transform="translate(-1.8 -15.1)"/><path class="bc28f5cd-5f0b-49a5-8a25-7a503b9c095e" d="M282.4,86.2v-.3l-.2-.2c-.1,0-.1-.1,0-.1h.3v-.3h.1l.2.3h.4l-.2.3v.3a.1.1,0,0,1-.1.1h-.3l-.3.2Z" transform="translate(-1.8 -15.1)"/><path class="bc28f5cd-5f0b-49a5-8a25-7a503b9c095e" d="M267.7,72.3v-.4h0v-.4h.1l.2.3h.4l-.2.2v.4H268l-.2.2Z" transform="translate(-1.8 -15.1)"/><path class="b71fcecc-8826-45cc-9056-12cbc60ad328" d="M287.2,81.5v-.4l-.4-.2c0-.1,0-.1.1-.1l.3-.2.2-.4h.1l.2.3h.5l-.3.3.2.4a.1.1,0,0,1-.1.1h-.4l-.3.2Z" transform="translate(-1.8 -15.1)"/><path class="b71fcecc-8826-45cc-9056-12cbc60ad328" d="M274.2,72.1v-.4l-.3-.3c-.1,0-.1-.1,0-.1h.4v-.4h.1l.2.3h.4c.1,0,.1,0,.1.1l-.3.3.2.4h-.5l-.3.2Z" transform="translate(-1.8 -15.1)"/><path class="bc28f5cd-5f0b-49a5-8a25-7a503b9c095e" d="M274.2,63v-.4l-.3-.3c-.1,0-.1-.1,0-.1h.4v-.4s0-.1.1,0l.2.3h.4c.1,0,.1,0,.1.1l-.3.3.2.4h-.5l-.3.2Z" transform="translate(-1.8 -15.1)"/><path class="bc28f5cd-5f0b-49a5-8a25-7a503b9c095e" d="M301.9,70.5v-.4l-.4-.2c0-.1,0-.1.1-.1l.3-.2.2-.3h.1l.2.4h.5l-.3.4.2.4h-.5l-.3.3Z" transform="translate(-1.8 -15.1)"/><path class="bc28f5cd-5f0b-49a5-8a25-7a503b9c095e" d="M288.2,60.4V60l-.3-.3c-.1,0-.1-.1,0-.1h.4v-.4h.1l.2.3h.4a.1.1,0,0,1,.1.1l-.3.3.2.4h-.5l-.3.2Z" transform="translate(-1.8 -15.1)"/><path class="b71fcecc-8826-45cc-9056-12cbc60ad328" d="M270.1,60.5v-.4l-.3-.3h.4v-.4s.1-.1.1,0l.3.3h.4l-.2.3v.4a.1.1,0,0,1-.1.1h-.3l-.4.2Z" transform="translate(-1.8 -15.1)"/><path class="b71fcecc-8826-45cc-9056-12cbc60ad328" d="M299.2,64.4V64l-.3-.3c-.1,0,0-.1,0-.1h.4v-.4s.1-.1.1,0l.2.3h.4a.1.1,0,0,1,.1.1l-.2.3v.4h-.5l-.3.2Z" transform="translate(-1.8 -15.1)"/><path class="bc28f5cd-5f0b-49a5-8a25-7a503b9c095e" d="M288.8,85.2h.2v-.2h.1v.2h.3l-.2.2v.2H289v-.2h-.2Z" transform="translate(-1.8 -15.1)"/><path class="bc28f5cd-5f0b-49a5-8a25-7a503b9c095e" d="M284.1,53h.2v-.2h.1v.2h.2a.1.1,0,0,1,.1.1l-.2.2v.2h-.4c0,.1-.1,0-.1,0v-.2h-.2Z" transform="translate(-1.8 -15.1)"/><path class="bc28f5cd-5f0b-49a5-8a25-7a503b9c095e" d="M270,55.1h.2v-.2h.1V55h.3v.4s0,.1-.1,0h-.4v-.2H270Z" transform="translate(-1.8 -15.1)"/><path class="bc28f5cd-5f0b-49a5-8a25-7a503b9c095e" d="M291.1,80.8h.2v-.2h0l.2.2h.2v.4h-.5V81h-.2Z" transform="translate(-1.8 -15.1)"/><path class="bc28f5cd-5f0b-49a5-8a25-7a503b9c095e" d="M300.5,85.4h.3v-.4s.1-.1.1,0l.2.3h.4s.1.1,0,.1l-.2.3.2.4h-.4l-.3.2h-.1v-.4l-.3-.2C300.4,85.5,300.4,85.4,300.5,85.4Z" transform="translate(-1.8 -15.1)"/><path class="bc28f5cd-5f0b-49a5-8a25-7a503b9c095e" d="M297.1,82.8h.7l-.2.2v.2h-.4V83h-.2Z" transform="translate(-1.8 -15.1)"/><path class="bc28f5cd-5f0b-49a5-8a25-7a503b9c095e" d="M300,81h.4v-.3h.1V81h.4l-.3.2v.4h0l-.3-.2h-.4v-.4l-.2-.2Z" transform="translate(-1.8 -15.1)"/><path class="b71fcecc-8826-45cc-9056-12cbc60ad328" d="M306.3,69.9h.3l.2-.3h.1v.3h.3s.1.1,0,.1l-.2.2v.3a.1.1,0,0,1-.1.1l-.3-.2h-.4v-.3l-.2-.2Z" transform="translate(-1.8 -15.1)"/><path class="b71fcecc-8826-45cc-9056-12cbc60ad328" d="M299.7,78.9h.4v.2h-.3v-.2Z" transform="translate(-1.8 -15.1)"/><path class="bc28f5cd-5f0b-49a5-8a25-7a503b9c095e" d="M302.4,82.9h.2v.2h0v.2h-.3V83h0Z" transform="translate(-1.8 -15.1)"/><path class="bc28f5cd-5f0b-49a5-8a25-7a503b9c095e" d="M303.6,79.5h.1v-.2h0v.2h-.3v-.2h0Z" transform="translate(-1.8 -15.1)"/><path class="bc28f5cd-5f0b-49a5-8a25-7a503b9c095e" d="M304.9,77.4h.1v-.2h.1v.2h-.3v-.2Z" transform="translate(-1.8 -15.1)"/><path class="bc28f5cd-5f0b-49a5-8a25-7a503b9c095e" d="M304.9,71.9h.4v.2h-.4Z" transform="translate(-1.8 -15.1)"/><path class="bc28f5cd-5f0b-49a5-8a25-7a503b9c095e" d="M300.9,62.3h.2c0-.1.1-.1.1,0h.1a.1.1,0,0,1-.1.1h-.3v-.2Z" transform="translate(-1.8 -15.1)"/><path class="bc28f5cd-5f0b-49a5-8a25-7a503b9c095e" d="M285,57.6h.3v.2h.1V58H285v-.2H285Z" transform="translate(-1.8 -15.1)"/><path class="bc28f5cd-5f0b-49a5-8a25-7a503b9c095e" d="M276.9,62.9h.3V63h0v.2H277v-.2h-.1Z" transform="translate(-1.8 -15.1)"/><path class="bc28f5cd-5f0b-49a5-8a25-7a503b9c095e" d="M298.1,56.7h0v-.2h0Z" transform="translate(-1.8 -15.1)"/><path class="bc28f5cd-5f0b-49a5-8a25-7a503b9c095e" d="M294.3,56.3h.3v.2h.1v.2h-.4v-.2h-.1Z" transform="translate(-1.8 -15.1)"/><path class="bc28f5cd-5f0b-49a5-8a25-7a503b9c095e" d="M296.6,54.7h.3l.2-.2h0v.3h.4l-.3.2v.4h0l-.3-.2h-.4v-.3l-.2-.3Z" transform="translate(-1.8 -15.1)"/><path class="b71fcecc-8826-45cc-9056-12cbc60ad328" d="M297.9,59.6h.3l.3-.2h0v.3l.3.2h-.3v.3h-.1l-.2-.3h-.3l.2-.3-.2-.3Z" transform="translate(-1.8 -15.1)"/><path class="bc28f5cd-5f0b-49a5-8a25-7a503b9c095e" d="M301.8,59.1h.3l.3-.2h0v.3l.3.2h-.3V60c0,.1-.1.1-.1,0l-.2-.2h-.3s-.1-.1,0-.1l.2-.3-.2-.3Z" transform="translate(-1.8 -15.1)"/><path class="b71fcecc-8826-45cc-9056-12cbc60ad328" d="M292,57.6h.3l.3-.2h0v.3l.3.2h-.3v.4h-.1l-.2-.3h-.4l.2-.3v-.3C291.9,57.6,291.9,57.6,292,57.6Z" transform="translate(-1.8 -15.1)"/><path class="b71fcecc-8826-45cc-9056-12cbc60ad328" d="M286.9,55.1h.3l.3-.2c0-.1.1,0,.1,0v.3l.2.2c.1,0,.1.1,0,.1h-.3V56s0,.1-.1,0l-.2-.2h-.3l.2-.3v-.3Z" transform="translate(-1.8 -15.1)"/><path class="bc28f5cd-5f0b-49a5-8a25-7a503b9c095e" d="M275.3,56.3h.3l.3-.2h0v.3l.3.2h-.3v.3h-.1l-.2-.2h-.3s-.1-.1,0-.1l.2-.3-.2-.3Z" transform="translate(-1.8 -15.1)"/><path class="bc28f5cd-5f0b-49a5-8a25-7a503b9c095e" d="M305.8,75.1h.2l.2-.2h0v.2h.1v.3h-.1l-.2-.2h-.3v-.2l-.2-.2C305.7,75.1,305.7,75.1,305.8,75.1Z" transform="translate(-1.8 -15.1)"/><path class="bc28f5cd-5f0b-49a5-8a25-7a503b9c095e" d="M302.1,73.5h.4c.1,0,.1.1,0,.1h-.4Z" transform="translate(-1.8 -15.1)"/><path class="bc28f5cd-5f0b-49a5-8a25-7a503b9c095e" d="M306,67.3h.2v.2h.1c0,.1,0,.1-.1.1h-.3A.1.1,0,0,1,306,67.3Z" transform="translate(-1.8 -15.1)"/><path class="b71fcecc-8826-45cc-9056-12cbc60ad328" d="M292.9,86.6h.2v-.2h0l.2.2h.2v.4h-.5v-.2h-.2Z" transform="translate(-1.8 -15.1)"/><path class="bc28f5cd-5f0b-49a5-8a25-7a503b9c095e" d="M295.5,87.9h.3l.3-.2h0v.4h0v.4H296l-.2-.3h-.4l.2-.3-.2-.3Z" transform="translate(-1.8 -15.1)"/><path class="bc28f5cd-5f0b-49a5-8a25-7a503b9c095e" d="M275.3,79h.3V79h-.4Z" transform="translate(-1.8 -15.1)"/><path class="bc28f5cd-5f0b-49a5-8a25-7a503b9c095e" d="M270.6,74.4v-.2h-.1c-.1-.1-.1-.1,0-.1h.1v-.2h0Z" transform="translate(-1.8 -15.1)"/></svg>